<svg xmlns="http://www.w3.org/2000/svg" width="801" height="159" fill="none"><g clip-path="url(#a)"><path fill="#D1EB00" fill-rule="evenodd" d="M101.636 46.778a39.602 39.602 0 0 0-22.002-6.674V.5A79.209 79.209 0 1 1 .426 79.708H40.03a39.606 39.606 0 0 0 47.33 38.843 39.603 39.603 0 0 0 14.276-71.773Z" clip-rule="evenodd"/><path fill="#D1EB00" fill-rule="evenodd" d="M40.03.5A39.604 39.604 0 0 1 .426 40.104v39.604A79.208 79.208 0 0 0 79.634.5H40.03Z" clip-rule="evenodd"/><path fill="#fff" d="M497.923 57.738h-19.216v61.038h19.216V57.738Zm-17.079-11.43c2.008 2.01 4.519 3.014 7.533 3.014 3.014 0 5.485-1.004 7.41-3.014 1.928-2.093 2.891-4.605 2.891-7.535 0-3.015-.963-5.527-2.891-7.536-1.925-2.01-4.396-3.014-7.41-3.014-3.014 0-5.525 1.004-7.533 3.014-1.929 2.01-2.891 4.521-2.891 7.536 0 2.93.962 5.442 2.891 7.535Zm-277.817 72.468v-88.67h19.719v71.338h39.311v17.332h-59.03Z"/><path fill="#fff" fill-rule="evenodd" d="M297.564 120.158c-6.279 0-11.973-1.382-17.081-4.145-5.023-2.846-9-6.698-11.931-11.555-2.93-4.856-4.396-10.298-4.396-16.327 0-6.028 1.466-11.429 4.396-16.201 2.931-4.773 6.908-8.54 11.931-11.304 5.024-2.847 10.718-4.27 17.081-4.27 6.364 0 12.057 1.382 17.081 4.144 5.024 2.764 9.001 6.573 11.931 11.43 2.931 4.772 4.396 10.173 4.396 16.201 0 6.029-1.465 11.471-4.396 16.327-2.93 4.857-6.907 8.709-11.931 11.555-5.024 2.763-10.717 4.145-17.081 4.145Zm0-17.458c2.763 0 5.191-.586 7.285-1.758a12.307 12.307 0 0 0 4.772-5.15c1.172-2.26 1.759-4.814 1.759-7.66 0-2.848-.587-5.318-1.759-7.41-1.172-2.178-2.805-3.852-4.898-5.024-2.01-1.257-4.396-1.884-7.159-1.884-2.679 0-5.065.627-7.159 1.884-2.093 1.172-3.726 2.846-4.898 5.023-1.172 2.177-1.758 4.69-1.758 7.536 0 2.763.586 5.275 1.758 7.536 1.172 2.177 2.805 3.893 4.898 5.149 2.094 1.172 4.48 1.758 7.159 1.758Zm48.622 39.939c5.108 2.345 11.011 3.517 17.709 3.517 6.531 0 12.351-1.298 17.458-3.894 5.108-2.595 9.126-6.195 12.057-10.8 2.93-4.606 4.397-10.048 4.397-16.328V57.738h-18.841v4.1c-1.401-1.179-2.992-2.169-4.772-2.97-3.266-1.591-6.992-2.387-11.178-2.387-5.61 0-10.592 1.34-14.946 4.02-4.354 2.595-7.786 6.195-10.299 10.8-2.512 4.522-3.767 9.63-3.767 15.323 0 5.61 1.255 10.718 3.767 15.323 2.513 4.605 5.945 8.247 10.299 10.926 4.354 2.68 9.336 4.019 14.946 4.019 4.103 0 7.829-.795 11.178-2.386a22.403 22.403 0 0 0 4.396-2.724v3.855c0 4.27-1.382 7.577-4.145 9.922-2.679 2.344-6.405 3.516-11.178 3.516-3.851 0-7.159-.67-9.922-2.01-2.679-1.339-5.107-3.307-7.284-5.902l-11.806 11.805c2.93 4.187 6.908 7.411 11.931 9.671Zm27.38-44.586c-1.926 1.172-4.228 1.759-6.908 1.759-2.679 0-5.024-.587-7.033-1.759-1.926-1.172-3.433-2.763-4.521-4.772a14.22 14.22 0 0 1-1.633-6.657c0-2.512.544-4.772 1.633-6.782 1.088-2.01 2.637-3.6 4.646-4.773 2.01-1.172 4.313-1.758 6.908-1.758 2.68 0 4.982.586 6.908 1.758 2.009 1.173 3.516 2.764 4.521 4.773 1.089 2.01 1.633 4.27 1.633 6.782 0 2.512-.544 4.773-1.633 6.782-1.005 1.926-2.512 3.475-4.521 4.647Zm64.684 22.105c-6.281 0-11.976-1.381-17.081-4.145-5.026-2.846-9.002-6.698-11.933-11.554-2.931-4.857-4.396-10.3-4.396-16.328 0-6.028 1.465-11.428 4.396-16.201s6.907-8.54 11.933-11.304c5.021-2.847 10.716-4.27 17.081-4.27 6.36 0 12.055 1.382 17.077 4.145 5.026 2.763 9.002 6.573 11.933 11.429 2.93 4.772 4.396 10.173 4.396 16.201 0 6.029-1.466 11.471-4.396 16.328-2.931 4.856-6.907 8.708-11.933 11.554-5.022 2.764-10.717 4.145-17.077 4.145Zm0-17.457c2.76 0 5.188-.587 7.283-1.759a12.325 12.325 0 0 0 4.772-5.15c1.172-2.26 1.759-4.814 1.759-7.66 0-2.847-.587-5.317-1.759-7.41-1.172-2.177-2.804-3.852-4.899-5.024-2.008-1.256-4.396-1.884-7.156-1.884-2.681 0-5.07.628-7.161 1.884-2.095 1.172-3.726 2.847-4.899 5.024-1.172 2.177-1.758 4.688-1.758 7.535 0 2.763.586 5.275 1.758 7.536 1.173 2.177 2.804 3.893 4.899 5.149 2.091 1.172 4.48 1.759 7.161 1.759Zm105.868 17.331c-4.099 0-7.87-.795-11.303-2.386a24.024 24.024 0 0 1-4.896-2.999v29.876h-18.966V57.738h19.216v4.212a23.76 23.76 0 0 1 4.646-2.957c3.433-1.674 7.204-2.512 11.303-2.512 5.778 0 10.887 1.382 15.322 4.145 4.523 2.763 8.04 6.531 10.551 11.304 2.598 4.772 3.893 10.215 3.893 16.327 0 6.112-1.295 11.555-3.893 16.327-2.511 4.773-6.028 8.54-10.551 11.304-4.435 2.763-9.544 4.144-15.322 4.144Zm-3.513-17.332c2.76 0 5.148-.628 7.156-1.884 2.095-1.255 3.727-2.972 4.899-5.149 1.172-2.177 1.759-4.647 1.759-7.41 0-2.847-.587-5.359-1.759-7.536-1.172-2.177-2.804-3.851-4.899-5.023-2.008-1.257-4.352-1.884-7.034-1.884-2.677 0-5.065.627-7.156 1.884-2.012 1.172-3.6 2.846-4.772 5.023-1.173 2.177-1.759 4.689-1.759 7.536 0 2.763.543 5.233 1.632 7.41 1.172 2.177 2.804 3.894 4.899 5.149 2.091 1.256 4.436 1.884 7.034 1.884Z" clip-rule="evenodd"/><path fill="#fff" d="M592.684 118.902a41.961 41.961 0 0 0 10.674 1.381c7.62 0 13.647-1.758 18.087-5.275 4.519-3.516 6.78-8.247 6.78-14.192 0-3.851-.709-6.95-2.135-9.294-1.421-2.428-3.263-4.354-5.524-5.777a33.004 33.004 0 0 0-7.161-3.391 110.635 110.635 0 0 0-7.156-2.135c-2.262-.586-4.103-1.256-5.529-2.01-1.422-.753-2.135-1.758-2.135-3.014 0-1.172.547-2.051 1.632-2.638 1.089-.67 2.721-1.004 4.899-1.004 2.262 0 4.563.46 6.907 1.381 2.428.921 4.606 2.513 6.531 4.773l10.927-11.052c-2.761-3.517-6.361-6.155-10.8-7.913-4.353-1.842-9.125-2.763-14.317-2.763-4.939 0-9.252.837-12.935 2.512-3.687 1.675-6.535 3.977-8.543 6.907-2.007 2.847-3.013 6.239-3.013 10.174 0 3.684.712 6.74 2.134 9.168 1.422 2.345 3.268 4.187 5.525 5.526a32.078 32.078 0 0 0 7.16 3.14c2.511.754 4.899 1.465 7.161 2.135 2.257.587 4.103 1.298 5.525 2.136 1.508.753 2.261 1.883 2.261 3.39 0 1.173-.63 2.094-1.885 2.764-1.173.669-2.887 1.004-5.149 1.004-3.267 0-6.281-.586-9.041-1.758-2.765-1.256-5.153-2.972-7.161-5.15l-10.926 11.053c2.095 2.261 4.606 4.27 7.536 6.028a42.487 42.487 0 0 0 9.671 3.894Zm70.579 1.256c-5.608 0-10.591-1.13-14.943-3.391-4.273-2.345-7.62-5.526-10.048-9.545-2.431-4.103-3.643-8.792-3.643-14.067V57.738h19.216v35.166c0 2.093.332 3.894 1.006 5.4.752 1.508 1.841 2.68 3.263 3.517 1.426.837 3.141 1.256 5.149 1.256 2.847 0 5.108-.879 6.784-2.638 1.675-1.841 2.511-4.353 2.511-7.535V57.738h19.215V93.03c0 5.358-1.211 10.089-3.643 14.192-2.428 4.019-5.774 7.2-10.048 9.545-4.269 2.261-9.208 3.391-14.819 3.391Zm57.281-62.42h-19.216v61.038h19.216V83.108c0-2.094.42-3.852 1.255-5.275a9.158 9.158 0 0 1 3.644-3.266c1.509-.837 3.224-1.256 5.148-1.256 2.765 0 5.066.88 6.907 2.638 1.929 1.674 2.891 4.06 2.891 7.159v35.668h19.216V83.108c0-2.094.42-3.852 1.256-5.275a9.129 9.129 0 0 1 3.643-3.266c1.505-.837 3.224-1.256 5.149-1.256 2.764 0 5.065.88 6.907 2.638 1.925 1.674 2.887 4.06 2.887 7.159v35.668h19.22V80.972c0-5.107-1.089-9.461-3.268-13.061-2.095-3.685-4.982-6.49-8.665-8.415-3.6-2.01-7.746-3.015-12.436-3.015-4.772 0-9.085 1.047-12.934 3.14a23.477 23.477 0 0 0-6.563 5.164 21.347 21.347 0 0 0-6.376-5.415c-3.346-1.925-7.156-2.889-11.426-2.889-4.522 0-8.582.963-12.182 2.889a21.043 21.043 0 0 0-4.273 2.879v-4.511Z"/></g><defs><clipPath id="a"><path fill="#fff" d="M.426.5h800v158.416h-800z"/></clipPath></defs></svg>